<?xml version="1.0" encoding="utf-8"?>
<!-- Generator: Adobe Illustrator 16.0.0, SVG Export Plug-In . SVG Version: 6.00 Build 0)  -->
<!DOCTYPE svg PUBLIC "-//W3C//DTD SVG 1.1//EN" "http://www.w3.org/Graphics/SVG/1.1/DTD/svg11.dtd">
<svg version="1.1" id="Layer_1" xmlns="http://www.w3.org/2000/svg" xmlns:xlink="http://www.w3.org/1999/xlink" x="0px" y="0px"
	 width="640px" height="480px" viewBox="0 0 640 480" enable-background="new 0 0 640 480" xml:space="preserve">
<g id="hello">
	<g id="hand">
		<circle fill="none" cx="335.5" cy="494.999" r="399.2"/>
		<g>
			<path fill="none" stroke="#FFFFFF" stroke-width="7.3" stroke-linecap="round" stroke-miterlimit="10" d="M316.1,278.6
				c0,0-9.3-18.4-26.6-18.4h-0.2v-36.9c0-8.4-6.9-15.4-15.3-15.4s-15.4,6.9-15.4,15.3c0,0-0.2,38.6-0.1,51.5
				c0.2,37,26.6,68.9,61.6,76"/>
			
				<path fill="none" stroke="#FFFFFF" stroke-width="7.3" stroke-linecap="round" stroke-linejoin="round" stroke-miterlimit="10" d="
				M354.2,350.1c33.3-8.4,58.1-38.4,58.1-74.4l0.2-109.6c0-8.4-6.9-15.4-15.3-15.4c-8.4,0-15.4,6.9-15.4,15.3l-0.1,63.1l0.2-100.4
				c0-8.4-6.9-15.4-15.301-15.4c-8.399,0-15.399,6.9-15.399,15.3l-0.2,87.6l0.2-97.3c0-8.4-6.899-15.4-15.3-15.4
				s-15.4,6.9-15.4,15.3l-0.2,97.3l0.2-73.5c0-8.4-6.9-15.4-15.3-15.4s-15.4,6.9-15.4,15.3l-0.3,80.6"/>
		</g>
	</g>
</g>
</svg>
